<svg width="436" height="636" viewBox="0 0 436 636" fill="none" xmlns="http://www.w3.org/2000/svg">
<path d="M184.667 118H251.333M124.667 618H311.333C348.67 618 367.34 618 381.6 610.733C394.143 604.343 404.343 594.143 410.733 581.6C418 567.34 418 548.67 418 511.333V124.667C418 87.33 418 68.6613 410.733 54.4007C404.343 41.8563 394.143 31.6577 381.6 25.2663C367.34 18 348.67 18 311.333 18H124.667C87.33 18 68.6613 18 54.4007 25.2663C41.8563 31.6577 31.6577 41.8563 25.2663 54.4007C18 68.6613 18 87.3297 18 124.667V511.333C18 548.67 18 567.34 25.2663 581.6C31.6577 594.143 41.8563 604.343 54.4007 610.733C68.6613 618 87.3297 618 124.667 618Z" stroke="white" stroke-width="35" stroke-linecap="round" stroke-linejoin="round"/>
<circle cx="217.5" cy="538.5" r="27.5" fill="white"/>
</svg>
